<mxfile host="app.diagrams.net" agent="Mozilla/5.0 (X11; Linux x86_64) AppleWebKit/537.36 (KHTML, like Gecko) Chrome/131.0.0.0 Safari/537.36" version="25.0.3">
  <diagram name="Page-1" id="PuFN-wMOv0jWiG4jprAx">
    <mxGraphModel dx="2367" dy="1373" grid="1" gridSize="10" guides="1" tooltips="1" connect="1" arrows="1" fold="1" page="1" pageScale="1" pageWidth="740" pageHeight="1190" background="none" math="0" shadow="0">
      <root>
        <mxCell id="0" />
        <mxCell id="1" style="locked=1;" parent="0" />
        <mxCell id="-dR2T00Uhgw3VuPTZwKf-42" value="" style="html=1;rounded=0;strokeWidth=1;endArrow=none;endFill=0;dashed=1;labelBackgroundColor=none;shadow=1;movable=1;resizable=1;rotatable=1;deletable=1;editable=1;locked=0;connectable=1;fontColor=default;" parent="1" edge="1">
          <mxGeometry width="100" relative="1" as="geometry">
            <mxPoint x="200" y="10" as="sourcePoint" />
            <mxPoint x="200" y="1180" as="targetPoint" />
          </mxGeometry>
        </mxCell>
        <mxCell id="-dR2T00Uhgw3VuPTZwKf-54" value="" style="html=1;rounded=0;strokeWidth=1;endArrow=none;endFill=0;dashed=1;exitX=0.633;exitY=0;exitDx=0;exitDy=0;exitPerimeter=0;labelBackgroundColor=none;shadow=1;movable=1;resizable=1;rotatable=1;deletable=1;editable=1;locked=0;connectable=1;fontColor=default;" parent="1" edge="1">
          <mxGeometry width="100" relative="1" as="geometry">
            <mxPoint x="1000" y="10" as="sourcePoint" />
            <mxPoint x="1000" y="1180" as="targetPoint" />
          </mxGeometry>
        </mxCell>
        <mxCell id="-dR2T00Uhgw3VuPTZwKf-70" value="" style="html=1;rounded=0;strokeWidth=1;endArrow=none;endFill=0;dashed=1;labelBackgroundColor=none;shadow=1;movable=1;resizable=1;rotatable=1;deletable=1;editable=1;locked=0;connectable=1;fontColor=default;" parent="1" edge="1">
          <mxGeometry width="100" relative="1" as="geometry">
            <mxPoint x="10" y="40" as="sourcePoint" />
            <mxPoint x="1470" y="40" as="targetPoint" />
          </mxGeometry>
        </mxCell>
        <mxCell id="-dR2T00Uhgw3VuPTZwKf-71" value="" style="html=1;rounded=0;strokeWidth=1;endArrow=none;endFill=0;dashed=1;exitX=0.633;exitY=0;exitDx=0;exitDy=0;exitPerimeter=0;labelBackgroundColor=none;shadow=1;movable=1;resizable=1;rotatable=1;deletable=1;editable=1;locked=0;connectable=1;fontColor=default;" parent="1" edge="1">
          <mxGeometry width="100" relative="1" as="geometry">
            <mxPoint x="1400" y="10" as="sourcePoint" />
            <mxPoint x="1400" y="680" as="targetPoint" />
          </mxGeometry>
        </mxCell>
        <mxCell id="DKlUDa0g7rmCu-vv5rfz-8" value="" style="html=1;rounded=0;strokeWidth=1;endArrow=none;endFill=0;dashed=1;labelBackgroundColor=none;shadow=1;movable=1;resizable=1;rotatable=1;deletable=1;editable=1;locked=0;connectable=1;fontColor=default;" edge="1" parent="1">
          <mxGeometry width="100" relative="1" as="geometry">
            <mxPoint x="600" y="10" as="sourcePoint" />
            <mxPoint x="600" y="1180" as="targetPoint" />
          </mxGeometry>
        </mxCell>
        <mxCell id="-dR2T00Uhgw3VuPTZwKf-47" value="Legend" style="rounded=1;fillColor=none;verticalAlign=top;labelBackgroundColor=none;movable=1;resizable=1;rotatable=1;deletable=1;editable=1;locked=0;connectable=1;container=0;noLabel=1;" parent="1" vertex="1">
          <mxGeometry x="1260" y="690" width="200" height="480" as="geometry" />
        </mxCell>
        <mxCell id="-dR2T00Uhgw3VuPTZwKf-555" value="" style="rounded=1;whiteSpace=wrap;html=1;fillColor=none;labelBackgroundColor=none;movable=1;resizable=1;rotatable=1;deletable=1;editable=1;locked=0;connectable=1;container=0;" parent="1" vertex="1">
          <mxGeometry x="1280" y="1010" width="160" height="40" as="geometry" />
        </mxCell>
        <mxCell id="DKlUDa0g7rmCu-vv5rfz-169" value="" style="rounded=1;whiteSpace=wrap;html=1;fillColor=none;labelBackgroundColor=none;movable=1;resizable=1;rotatable=1;deletable=1;editable=1;locked=0;connectable=1;container=0;" vertex="1" parent="1">
          <mxGeometry x="1280" y="960" width="160" height="40" as="geometry" />
        </mxCell>
        <mxCell id="DKlUDa0g7rmCu-vv5rfz-170" value="" style="rounded=1;whiteSpace=wrap;html=1;fillColor=none;labelBackgroundColor=none;movable=1;resizable=1;rotatable=1;deletable=1;editable=1;locked=0;connectable=1;container=0;" vertex="1" parent="1">
          <mxGeometry x="1280" y="910" width="160" height="40" as="geometry" />
        </mxCell>
        <mxCell id="DKlUDa0g7rmCu-vv5rfz-171" value="" style="rounded=1;whiteSpace=wrap;html=1;fillColor=none;labelBackgroundColor=none;movable=1;resizable=1;rotatable=1;deletable=1;editable=1;locked=0;connectable=1;container=0;" vertex="1" parent="1">
          <mxGeometry x="1280" y="860" width="160" height="40" as="geometry" />
        </mxCell>
        <mxCell id="DKlUDa0g7rmCu-vv5rfz-172" value="" style="rounded=1;whiteSpace=wrap;html=1;fillColor=none;labelBackgroundColor=none;movable=1;resizable=1;rotatable=1;deletable=1;editable=1;locked=0;connectable=1;container=0;" vertex="1" parent="1">
          <mxGeometry x="1280" y="810" width="160" height="40" as="geometry" />
        </mxCell>
        <mxCell id="DKlUDa0g7rmCu-vv5rfz-174" value="" style="rounded=1;whiteSpace=wrap;html=1;fillColor=none;labelBackgroundColor=none;movable=1;resizable=1;rotatable=1;deletable=1;editable=1;locked=0;connectable=1;container=0;" vertex="1" parent="1">
          <mxGeometry x="1280" y="760" width="160" height="40" as="geometry" />
        </mxCell>
        <mxCell id="DKlUDa0g7rmCu-vv5rfz-14" value="Shapes and Lines" style="" parent="0" />
        <mxCell id="DKlUDa0g7rmCu-vv5rfz-99" value="" style="edgeStyle=orthogonalEdgeStyle;shape=connector;curved=0;rounded=1;jumpStyle=arc;orthogonalLoop=1;jettySize=auto;exitX=0.5;exitY=1;exitDx=0;exitDy=0;entryX=0;entryY=0.5;entryDx=0;entryDy=0;strokeColor=#667788;strokeWidth=2;align=center;verticalAlign=middle;fontFamily=Helvetica;fontSize=11;fontColor=default;labelBackgroundColor=none;endArrow=classic;dashed=1;textShadow=1;" edge="1" parent="DKlUDa0g7rmCu-vv5rfz-14" source="DKlUDa0g7rmCu-vv5rfz-31" target="DKlUDa0g7rmCu-vv5rfz-55">
          <mxGeometry relative="1" as="geometry">
            <Array as="points">
              <mxPoint x="190" y="100" />
              <mxPoint x="190" y="680" />
            </Array>
          </mxGeometry>
        </mxCell>
        <mxCell id="DKlUDa0g7rmCu-vv5rfz-31" value="" style="rounded=1;whiteSpace=wrap;strokeWidth=2;strokeColor=#667788;textShadow=1;labelBackgroundColor=none;" vertex="1" parent="DKlUDa0g7rmCu-vv5rfz-14">
          <mxGeometry x="20" y="60" width="160" height="40" as="geometry" />
        </mxCell>
        <mxCell id="DKlUDa0g7rmCu-vv5rfz-32" value="" style="rounded=1;whiteSpace=wrap;strokeWidth=2;strokeColor=#667788;textShadow=1;labelBackgroundColor=none;" vertex="1" parent="DKlUDa0g7rmCu-vv5rfz-14">
          <mxGeometry x="620" y="60" width="160" height="40" as="geometry" />
        </mxCell>
        <mxCell id="DKlUDa0g7rmCu-vv5rfz-33" value="" style="rounded=1;whiteSpace=wrap;strokeWidth=2;strokeColor=#667788;textShadow=1;labelBackgroundColor=none;" vertex="1" parent="DKlUDa0g7rmCu-vv5rfz-14">
          <mxGeometry x="620" y="120" width="160" height="40" as="geometry" />
        </mxCell>
        <mxCell id="DKlUDa0g7rmCu-vv5rfz-34" value="" style="rounded=1;whiteSpace=wrap;strokeWidth=2;strokeColor=#667788;textShadow=1;labelBackgroundColor=none;" vertex="1" parent="DKlUDa0g7rmCu-vv5rfz-14">
          <mxGeometry x="620" y="180" width="160" height="40" as="geometry" />
        </mxCell>
        <mxCell id="DKlUDa0g7rmCu-vv5rfz-35" value="" style="rounded=1;whiteSpace=wrap;strokeWidth=2;strokeColor=#667788;textShadow=1;labelBackgroundColor=none;" vertex="1" parent="DKlUDa0g7rmCu-vv5rfz-14">
          <mxGeometry x="420" y="150" width="160" height="40" as="geometry" />
        </mxCell>
        <mxCell id="DKlUDa0g7rmCu-vv5rfz-36" value="" style="rounded=1;whiteSpace=wrap;strokeWidth=2;strokeColor=#667788;textShadow=1;labelBackgroundColor=none;" vertex="1" parent="DKlUDa0g7rmCu-vv5rfz-14">
          <mxGeometry x="220" y="150" width="160" height="40" as="geometry" />
        </mxCell>
        <mxCell id="DKlUDa0g7rmCu-vv5rfz-37" value="" style="rounded=1;whiteSpace=wrap;strokeWidth=2;strokeColor=#667788;textShadow=1;labelBackgroundColor=none;" vertex="1" parent="DKlUDa0g7rmCu-vv5rfz-14">
          <mxGeometry x="820" y="150" width="160" height="40" as="geometry" />
        </mxCell>
        <mxCell id="DKlUDa0g7rmCu-vv5rfz-38" value="" style="rounded=1;whiteSpace=wrap;strokeWidth=2;strokeColor=#667788;textShadow=1;labelBackgroundColor=none;" vertex="1" parent="DKlUDa0g7rmCu-vv5rfz-14">
          <mxGeometry x="820" y="260" width="160" height="40" as="geometry" />
        </mxCell>
        <mxCell id="DKlUDa0g7rmCu-vv5rfz-39" value="" style="rounded=1;whiteSpace=wrap;strokeWidth=2;strokeColor=#667788;textShadow=1;labelBackgroundColor=none;" vertex="1" parent="DKlUDa0g7rmCu-vv5rfz-14">
          <mxGeometry x="820" y="320" width="160" height="40" as="geometry" />
        </mxCell>
        <mxCell id="DKlUDa0g7rmCu-vv5rfz-90" value="" style="edgeStyle=orthogonalEdgeStyle;shape=connector;curved=0;rounded=1;jumpStyle=arc;orthogonalLoop=1;jettySize=auto;exitX=1;exitY=0.5;exitDx=0;exitDy=0;entryX=0;entryY=0.5;entryDx=0;entryDy=0;strokeColor=#667788;strokeWidth=2;align=center;verticalAlign=middle;fontFamily=Helvetica;fontSize=11;fontColor=default;labelBackgroundColor=none;endArrow=none;textShadow=1;" edge="1" parent="DKlUDa0g7rmCu-vv5rfz-14" source="DKlUDa0g7rmCu-vv5rfz-40" target="DKlUDa0g7rmCu-vv5rfz-41">
          <mxGeometry relative="1" as="geometry" />
        </mxCell>
        <mxCell id="DKlUDa0g7rmCu-vv5rfz-40" value="" style="rounded=1;whiteSpace=wrap;strokeWidth=2;strokeColor=#667788;textShadow=1;labelBackgroundColor=none;" vertex="1" parent="DKlUDa0g7rmCu-vv5rfz-14">
          <mxGeometry x="820" y="380" width="160" height="40" as="geometry" />
        </mxCell>
        <mxCell id="DKlUDa0g7rmCu-vv5rfz-41" value="" style="rounded=1;whiteSpace=wrap;strokeWidth=2;strokeColor=#667788;textShadow=1;labelBackgroundColor=none;" vertex="1" parent="DKlUDa0g7rmCu-vv5rfz-14">
          <mxGeometry x="1020" y="380" width="160" height="40" as="geometry" />
        </mxCell>
        <mxCell id="DKlUDa0g7rmCu-vv5rfz-42" value="" style="rounded=1;whiteSpace=wrap;strokeWidth=2;strokeColor=#667788;textShadow=1;labelBackgroundColor=none;" vertex="1" parent="DKlUDa0g7rmCu-vv5rfz-14">
          <mxGeometry x="1220" y="290" width="160" height="40" as="geometry" />
        </mxCell>
        <mxCell id="DKlUDa0g7rmCu-vv5rfz-87" value="" style="edgeStyle=orthogonalEdgeStyle;shape=connector;curved=0;rounded=1;jumpStyle=arc;orthogonalLoop=1;jettySize=auto;exitX=1;exitY=0.5;exitDx=0;exitDy=0;entryX=0;entryY=0.5;entryDx=0;entryDy=0;strokeColor=#667788;strokeWidth=2;align=center;verticalAlign=middle;fontFamily=Helvetica;fontSize=11;fontColor=default;labelBackgroundColor=none;endArrow=none;textShadow=1;" edge="1" parent="DKlUDa0g7rmCu-vv5rfz-14" source="DKlUDa0g7rmCu-vv5rfz-43" target="DKlUDa0g7rmCu-vv5rfz-38">
          <mxGeometry relative="1" as="geometry" />
        </mxCell>
        <mxCell id="DKlUDa0g7rmCu-vv5rfz-88" value="" style="edgeStyle=orthogonalEdgeStyle;shape=connector;curved=0;rounded=1;jumpStyle=arc;orthogonalLoop=1;jettySize=auto;exitX=1;exitY=0.5;exitDx=0;exitDy=0;entryX=0;entryY=0.5;entryDx=0;entryDy=0;strokeColor=#667788;strokeWidth=2;align=center;verticalAlign=middle;fontFamily=Helvetica;fontSize=11;fontColor=default;labelBackgroundColor=none;endArrow=none;textShadow=1;" edge="1" parent="DKlUDa0g7rmCu-vv5rfz-14" source="DKlUDa0g7rmCu-vv5rfz-43" target="DKlUDa0g7rmCu-vv5rfz-39">
          <mxGeometry relative="1" as="geometry" />
        </mxCell>
        <mxCell id="DKlUDa0g7rmCu-vv5rfz-89" value="" style="edgeStyle=orthogonalEdgeStyle;shape=connector;curved=0;rounded=1;jumpStyle=arc;orthogonalLoop=1;jettySize=auto;exitX=1;exitY=0.5;exitDx=0;exitDy=0;entryX=0;entryY=0.5;entryDx=0;entryDy=0;strokeColor=#667788;strokeWidth=2;align=center;verticalAlign=middle;fontFamily=Helvetica;fontSize=11;fontColor=default;labelBackgroundColor=none;endArrow=none;textShadow=1;" edge="1" parent="DKlUDa0g7rmCu-vv5rfz-14" source="DKlUDa0g7rmCu-vv5rfz-43" target="DKlUDa0g7rmCu-vv5rfz-42">
          <mxGeometry relative="1" as="geometry" />
        </mxCell>
        <mxCell id="DKlUDa0g7rmCu-vv5rfz-43" value="" style="rounded=1;whiteSpace=wrap;strokeWidth=2;strokeColor=#667788;textShadow=1;labelBackgroundColor=none;" vertex="1" parent="DKlUDa0g7rmCu-vv5rfz-14">
          <mxGeometry x="620" y="290" width="160" height="40" as="geometry" />
        </mxCell>
        <mxCell id="DKlUDa0g7rmCu-vv5rfz-86" value="" style="edgeStyle=orthogonalEdgeStyle;shape=connector;curved=0;rounded=1;jumpStyle=arc;orthogonalLoop=1;jettySize=auto;exitX=1;exitY=0.5;exitDx=0;exitDy=0;entryX=0;entryY=0.5;entryDx=0;entryDy=0;strokeColor=#667788;strokeWidth=2;align=center;verticalAlign=middle;fontFamily=Helvetica;fontSize=11;fontColor=default;labelBackgroundColor=none;endArrow=none;textShadow=1;" edge="1" parent="DKlUDa0g7rmCu-vv5rfz-14" source="DKlUDa0g7rmCu-vv5rfz-44" target="DKlUDa0g7rmCu-vv5rfz-40">
          <mxGeometry relative="1" as="geometry" />
        </mxCell>
        <mxCell id="DKlUDa0g7rmCu-vv5rfz-44" value="" style="rounded=1;whiteSpace=wrap;strokeWidth=2;strokeColor=#667788;textShadow=1;labelBackgroundColor=none;" vertex="1" parent="DKlUDa0g7rmCu-vv5rfz-14">
          <mxGeometry x="620" y="380" width="160" height="40" as="geometry" />
        </mxCell>
        <mxCell id="DKlUDa0g7rmCu-vv5rfz-84" value="" style="edgeStyle=orthogonalEdgeStyle;shape=connector;curved=0;rounded=1;jumpStyle=arc;orthogonalLoop=1;jettySize=auto;exitX=1;exitY=0.5;exitDx=0;exitDy=0;entryX=0;entryY=0.5;entryDx=0;entryDy=0;strokeColor=#667788;strokeWidth=2;align=center;verticalAlign=middle;fontFamily=Helvetica;fontSize=11;fontColor=default;labelBackgroundColor=none;endArrow=none;textShadow=1;" edge="1" parent="DKlUDa0g7rmCu-vv5rfz-14" source="DKlUDa0g7rmCu-vv5rfz-45" target="DKlUDa0g7rmCu-vv5rfz-44">
          <mxGeometry relative="1" as="geometry" />
        </mxCell>
        <mxCell id="DKlUDa0g7rmCu-vv5rfz-85" value="" style="edgeStyle=orthogonalEdgeStyle;shape=connector;curved=0;rounded=1;jumpStyle=arc;orthogonalLoop=1;jettySize=auto;exitX=1;exitY=0.5;exitDx=0;exitDy=0;entryX=0;entryY=0.5;entryDx=0;entryDy=0;strokeColor=#667788;strokeWidth=2;align=center;verticalAlign=middle;fontFamily=Helvetica;fontSize=11;fontColor=default;labelBackgroundColor=none;endArrow=none;textShadow=1;" edge="1" parent="DKlUDa0g7rmCu-vv5rfz-14" source="DKlUDa0g7rmCu-vv5rfz-45" target="DKlUDa0g7rmCu-vv5rfz-43">
          <mxGeometry relative="1" as="geometry" />
        </mxCell>
        <mxCell id="DKlUDa0g7rmCu-vv5rfz-45" value="" style="rounded=1;whiteSpace=wrap;strokeWidth=2;strokeColor=#667788;textShadow=1;labelBackgroundColor=none;" vertex="1" parent="DKlUDa0g7rmCu-vv5rfz-14">
          <mxGeometry x="420" y="290" width="160" height="40" as="geometry" />
        </mxCell>
        <mxCell id="DKlUDa0g7rmCu-vv5rfz-91" value="" style="edgeStyle=orthogonalEdgeStyle;shape=connector;curved=0;rounded=1;jumpStyle=arc;orthogonalLoop=1;jettySize=auto;exitX=1;exitY=0.5;exitDx=0;exitDy=0;entryX=0;entryY=0.5;entryDx=0;entryDy=0;strokeColor=#667788;strokeWidth=2;align=center;verticalAlign=middle;fontFamily=Helvetica;fontSize=11;fontColor=default;labelBackgroundColor=none;endArrow=none;textShadow=1;" edge="1" parent="DKlUDa0g7rmCu-vv5rfz-14" source="DKlUDa0g7rmCu-vv5rfz-46" target="DKlUDa0g7rmCu-vv5rfz-47">
          <mxGeometry relative="1" as="geometry" />
        </mxCell>
        <mxCell id="DKlUDa0g7rmCu-vv5rfz-92" value="" style="edgeStyle=orthogonalEdgeStyle;shape=connector;curved=0;rounded=1;jumpStyle=arc;orthogonalLoop=1;jettySize=auto;exitX=1;exitY=0.5;exitDx=0;exitDy=0;entryX=0.5;entryY=1;entryDx=0;entryDy=0;strokeColor=#667788;strokeWidth=2;align=center;verticalAlign=middle;fontFamily=Helvetica;fontSize=11;fontColor=default;labelBackgroundColor=none;endArrow=classic;endFill=1;textShadow=1;" edge="1" parent="DKlUDa0g7rmCu-vv5rfz-14" source="DKlUDa0g7rmCu-vv5rfz-46" target="DKlUDa0g7rmCu-vv5rfz-42">
          <mxGeometry relative="1" as="geometry">
            <Array as="points">
              <mxPoint x="1200" y="480" />
              <mxPoint x="1200" y="430" />
              <mxPoint x="1300" y="430" />
            </Array>
          </mxGeometry>
        </mxCell>
        <mxCell id="DKlUDa0g7rmCu-vv5rfz-94" value="" style="edgeStyle=orthogonalEdgeStyle;shape=connector;curved=0;rounded=1;jumpStyle=arc;orthogonalLoop=1;jettySize=auto;exitX=0;exitY=0.5;exitDx=0;exitDy=0;entryX=1;entryY=0.5;entryDx=0;entryDy=0;strokeColor=#667788;strokeWidth=2;align=center;verticalAlign=middle;fontFamily=Helvetica;fontSize=11;fontColor=default;labelBackgroundColor=none;endArrow=none;textShadow=1;" edge="1" parent="DKlUDa0g7rmCu-vv5rfz-14" source="DKlUDa0g7rmCu-vv5rfz-46" target="DKlUDa0g7rmCu-vv5rfz-52">
          <mxGeometry relative="1" as="geometry" />
        </mxCell>
        <mxCell id="DKlUDa0g7rmCu-vv5rfz-46" value="" style="rounded=1;whiteSpace=wrap;strokeWidth=2;strokeColor=#667788;textShadow=1;labelBackgroundColor=none;" vertex="1" parent="DKlUDa0g7rmCu-vv5rfz-14">
          <mxGeometry x="1020" y="460" width="160" height="40" as="geometry" />
        </mxCell>
        <mxCell id="DKlUDa0g7rmCu-vv5rfz-47" value="" style="rounded=1;whiteSpace=wrap;strokeWidth=2;strokeColor=#667788;textShadow=1;labelBackgroundColor=none;" vertex="1" parent="DKlUDa0g7rmCu-vv5rfz-14">
          <mxGeometry x="1220" y="460" width="160" height="40" as="geometry" />
        </mxCell>
        <mxCell id="DKlUDa0g7rmCu-vv5rfz-48" value="" style="rounded=1;whiteSpace=wrap;strokeWidth=2;strokeColor=#667788;textShadow=1;labelBackgroundColor=none;" vertex="1" parent="DKlUDa0g7rmCu-vv5rfz-14">
          <mxGeometry x="1020" y="520" width="160" height="40" as="geometry" />
        </mxCell>
        <mxCell id="DKlUDa0g7rmCu-vv5rfz-93" value="" style="edgeStyle=orthogonalEdgeStyle;shape=connector;curved=0;rounded=1;jumpStyle=arc;orthogonalLoop=1;jettySize=auto;exitX=1;exitY=0.5;exitDx=0;exitDy=0;entryX=0;entryY=0.5;entryDx=0;entryDy=0;strokeColor=#667788;strokeWidth=2;align=center;verticalAlign=middle;fontFamily=Helvetica;fontSize=11;fontColor=default;labelBackgroundColor=none;endArrow=none;textShadow=1;" edge="1" parent="DKlUDa0g7rmCu-vv5rfz-14" source="DKlUDa0g7rmCu-vv5rfz-49" target="DKlUDa0g7rmCu-vv5rfz-48">
          <mxGeometry relative="1" as="geometry" />
        </mxCell>
        <mxCell id="DKlUDa0g7rmCu-vv5rfz-49" value="" style="rounded=1;whiteSpace=wrap;strokeWidth=2;strokeColor=#667788;textShadow=1;labelBackgroundColor=none;" vertex="1" parent="DKlUDa0g7rmCu-vv5rfz-14">
          <mxGeometry x="620" y="520" width="160" height="40" as="geometry" />
        </mxCell>
        <mxCell id="DKlUDa0g7rmCu-vv5rfz-97" value="" style="edgeStyle=orthogonalEdgeStyle;shape=connector;curved=0;rounded=1;jumpStyle=arc;orthogonalLoop=1;jettySize=auto;exitX=1;exitY=0.5;exitDx=0;exitDy=0;entryX=0;entryY=0.5;entryDx=0;entryDy=0;strokeColor=#667788;strokeWidth=2;align=center;verticalAlign=middle;fontFamily=Helvetica;fontSize=11;fontColor=default;labelBackgroundColor=none;endArrow=none;textShadow=1;" edge="1" parent="DKlUDa0g7rmCu-vv5rfz-14" source="DKlUDa0g7rmCu-vv5rfz-50" target="DKlUDa0g7rmCu-vv5rfz-51">
          <mxGeometry relative="1" as="geometry" />
        </mxCell>
        <mxCell id="DKlUDa0g7rmCu-vv5rfz-50" value="" style="rounded=1;whiteSpace=wrap;strokeWidth=2;strokeColor=#667788;textShadow=1;labelBackgroundColor=none;" vertex="1" parent="DKlUDa0g7rmCu-vv5rfz-14">
          <mxGeometry x="620" y="580" width="160" height="40" as="geometry" />
        </mxCell>
        <mxCell id="DKlUDa0g7rmCu-vv5rfz-51" value="" style="rounded=1;whiteSpace=wrap;strokeWidth=2;strokeColor=#667788;textShadow=1;labelBackgroundColor=none;" vertex="1" parent="DKlUDa0g7rmCu-vv5rfz-14">
          <mxGeometry x="820" y="580" width="160" height="40" as="geometry" />
        </mxCell>
        <mxCell id="DKlUDa0g7rmCu-vv5rfz-95" value="" style="edgeStyle=orthogonalEdgeStyle;shape=connector;curved=0;rounded=1;jumpStyle=arc;orthogonalLoop=1;jettySize=auto;exitX=1;exitY=0.5;exitDx=0;exitDy=0;entryX=0;entryY=0.5;entryDx=0;entryDy=0;strokeColor=#667788;strokeWidth=2;align=center;verticalAlign=middle;fontFamily=Helvetica;fontSize=11;fontColor=default;labelBackgroundColor=none;endArrow=none;textShadow=1;" edge="1" parent="DKlUDa0g7rmCu-vv5rfz-14" source="DKlUDa0g7rmCu-vv5rfz-52" target="DKlUDa0g7rmCu-vv5rfz-49">
          <mxGeometry relative="1" as="geometry" />
        </mxCell>
        <mxCell id="DKlUDa0g7rmCu-vv5rfz-96" value="" style="edgeStyle=orthogonalEdgeStyle;shape=connector;curved=0;rounded=1;jumpStyle=arc;orthogonalLoop=1;jettySize=auto;exitX=1;exitY=0.5;exitDx=0;exitDy=0;entryX=0;entryY=0.5;entryDx=0;entryDy=0;strokeColor=#667788;strokeWidth=2;align=center;verticalAlign=middle;fontFamily=Helvetica;fontSize=11;fontColor=default;labelBackgroundColor=none;endArrow=none;textShadow=1;" edge="1" parent="DKlUDa0g7rmCu-vv5rfz-14" source="DKlUDa0g7rmCu-vv5rfz-52" target="DKlUDa0g7rmCu-vv5rfz-50">
          <mxGeometry relative="1" as="geometry" />
        </mxCell>
        <mxCell id="DKlUDa0g7rmCu-vv5rfz-98" value="" style="edgeStyle=orthogonalEdgeStyle;shape=connector;curved=0;rounded=1;jumpStyle=arc;orthogonalLoop=1;jettySize=auto;exitX=0.5;exitY=1;exitDx=0;exitDy=0;entryX=0.5;entryY=0;entryDx=0;entryDy=0;strokeColor=#667788;strokeWidth=2;align=center;verticalAlign=middle;fontFamily=Helvetica;fontSize=11;fontColor=default;labelBackgroundColor=none;endArrow=classic;dashed=1;textShadow=1;" edge="1" parent="DKlUDa0g7rmCu-vv5rfz-14" source="DKlUDa0g7rmCu-vv5rfz-52" target="DKlUDa0g7rmCu-vv5rfz-55">
          <mxGeometry relative="1" as="geometry" />
        </mxCell>
        <mxCell id="DKlUDa0g7rmCu-vv5rfz-52" value="" style="rounded=1;whiteSpace=wrap;strokeWidth=2;strokeColor=#667788;textShadow=1;labelBackgroundColor=none;" vertex="1" parent="DKlUDa0g7rmCu-vv5rfz-14">
          <mxGeometry x="20" y="520" width="160" height="40" as="geometry" />
        </mxCell>
        <mxCell id="DKlUDa0g7rmCu-vv5rfz-53" value="" style="rounded=1;whiteSpace=wrap;strokeWidth=2;strokeColor=#667788;textShadow=1;labelBackgroundColor=none;" vertex="1" parent="DKlUDa0g7rmCu-vv5rfz-14">
          <mxGeometry x="1020" y="660" width="160" height="40" as="geometry" />
        </mxCell>
        <mxCell id="DKlUDa0g7rmCu-vv5rfz-104" value="" style="edgeStyle=orthogonalEdgeStyle;shape=connector;curved=0;rounded=1;jumpStyle=arc;orthogonalLoop=1;jettySize=auto;exitX=1;exitY=0.5;exitDx=0;exitDy=0;entryX=0;entryY=0.5;entryDx=0;entryDy=0;strokeColor=#667788;strokeWidth=2;align=center;verticalAlign=middle;fontFamily=Helvetica;fontSize=11;fontColor=default;labelBackgroundColor=none;endArrow=classic;dashed=1;textShadow=1;" edge="1" parent="DKlUDa0g7rmCu-vv5rfz-14" source="DKlUDa0g7rmCu-vv5rfz-54" target="DKlUDa0g7rmCu-vv5rfz-53">
          <mxGeometry relative="1" as="geometry" />
        </mxCell>
        <mxCell id="DKlUDa0g7rmCu-vv5rfz-105" value="" style="edgeStyle=orthogonalEdgeStyle;shape=connector;curved=0;rounded=1;jumpStyle=arc;orthogonalLoop=1;jettySize=auto;exitX=1;exitY=0.5;exitDx=0;exitDy=0;entryX=0;entryY=0.5;entryDx=0;entryDy=0;strokeColor=#667788;strokeWidth=2;align=center;verticalAlign=middle;fontFamily=Helvetica;fontSize=11;fontColor=default;labelBackgroundColor=none;endArrow=classic;dashed=1;textShadow=1;" edge="1" parent="DKlUDa0g7rmCu-vv5rfz-14" source="DKlUDa0g7rmCu-vv5rfz-54" target="DKlUDa0g7rmCu-vv5rfz-57">
          <mxGeometry relative="1" as="geometry" />
        </mxCell>
        <mxCell id="DKlUDa0g7rmCu-vv5rfz-54" value="" style="rounded=1;whiteSpace=wrap;strokeWidth=2;strokeColor=#667788;textShadow=1;labelBackgroundColor=none;" vertex="1" parent="DKlUDa0g7rmCu-vv5rfz-14">
          <mxGeometry x="420" y="660" width="160" height="40" as="geometry" />
        </mxCell>
        <mxCell id="DKlUDa0g7rmCu-vv5rfz-101" value="" style="edgeStyle=orthogonalEdgeStyle;shape=connector;curved=0;rounded=1;jumpStyle=arc;orthogonalLoop=1;jettySize=auto;exitX=1;exitY=0.5;exitDx=0;exitDy=0;entryX=0;entryY=0.5;entryDx=0;entryDy=0;strokeColor=#667788;strokeWidth=2;align=center;verticalAlign=middle;fontFamily=Helvetica;fontSize=11;fontColor=default;labelBackgroundColor=none;endArrow=none;textShadow=1;" edge="1" parent="DKlUDa0g7rmCu-vv5rfz-14" source="DKlUDa0g7rmCu-vv5rfz-55" target="DKlUDa0g7rmCu-vv5rfz-54">
          <mxGeometry relative="1" as="geometry" />
        </mxCell>
        <mxCell id="DKlUDa0g7rmCu-vv5rfz-102" value="" style="edgeStyle=orthogonalEdgeStyle;shape=connector;curved=0;rounded=1;jumpStyle=arc;orthogonalLoop=1;jettySize=auto;exitX=1;exitY=0.5;exitDx=0;exitDy=0;entryX=0;entryY=0.5;entryDx=0;entryDy=0;strokeColor=#667788;strokeWidth=2;align=center;verticalAlign=middle;fontFamily=Helvetica;fontSize=11;fontColor=default;labelBackgroundColor=none;endArrow=none;textShadow=1;" edge="1" parent="DKlUDa0g7rmCu-vv5rfz-14" source="DKlUDa0g7rmCu-vv5rfz-55" target="DKlUDa0g7rmCu-vv5rfz-56">
          <mxGeometry relative="1" as="geometry" />
        </mxCell>
        <mxCell id="DKlUDa0g7rmCu-vv5rfz-55" value="" style="rounded=1;whiteSpace=wrap;strokeWidth=2;strokeColor=#667788;textShadow=1;labelBackgroundColor=none;" vertex="1" parent="DKlUDa0g7rmCu-vv5rfz-14">
          <mxGeometry x="220" y="660" width="160" height="40" as="geometry" />
        </mxCell>
        <mxCell id="DKlUDa0g7rmCu-vv5rfz-103" value="" style="edgeStyle=orthogonalEdgeStyle;shape=connector;curved=0;rounded=1;jumpStyle=arc;orthogonalLoop=1;jettySize=auto;exitX=1;exitY=0.5;exitDx=0;exitDy=0;entryX=0;entryY=0.5;entryDx=0;entryDy=0;strokeColor=#667788;strokeWidth=2;align=center;verticalAlign=middle;fontFamily=Helvetica;fontSize=11;fontColor=default;labelBackgroundColor=none;endArrow=none;textShadow=1;" edge="1" parent="DKlUDa0g7rmCu-vv5rfz-14" source="DKlUDa0g7rmCu-vv5rfz-56" target="DKlUDa0g7rmCu-vv5rfz-58">
          <mxGeometry relative="1" as="geometry" />
        </mxCell>
        <mxCell id="DKlUDa0g7rmCu-vv5rfz-106" value="" style="edgeStyle=orthogonalEdgeStyle;shape=connector;curved=0;rounded=1;jumpStyle=arc;orthogonalLoop=1;jettySize=auto;exitX=1;exitY=0.5;exitDx=0;exitDy=0;entryX=0;entryY=0.5;entryDx=0;entryDy=0;strokeColor=#667788;strokeWidth=2;align=center;verticalAlign=middle;fontFamily=Helvetica;fontSize=11;fontColor=default;labelBackgroundColor=none;endArrow=classic;dashed=1;textShadow=1;" edge="1" parent="DKlUDa0g7rmCu-vv5rfz-14" source="DKlUDa0g7rmCu-vv5rfz-56" target="DKlUDa0g7rmCu-vv5rfz-57">
          <mxGeometry relative="1" as="geometry" />
        </mxCell>
        <mxCell id="DKlUDa0g7rmCu-vv5rfz-107" value="" style="edgeStyle=orthogonalEdgeStyle;shape=connector;curved=0;rounded=1;jumpStyle=arc;orthogonalLoop=1;jettySize=auto;exitX=1;exitY=0.5;exitDx=0;exitDy=0;entryX=0;entryY=0.5;entryDx=0;entryDy=0;strokeColor=#667788;strokeWidth=2;align=center;verticalAlign=middle;fontFamily=Helvetica;fontSize=11;fontColor=default;labelBackgroundColor=none;endArrow=classic;dashed=1;textShadow=1;" edge="1" parent="DKlUDa0g7rmCu-vv5rfz-14" source="DKlUDa0g7rmCu-vv5rfz-56" target="DKlUDa0g7rmCu-vv5rfz-53">
          <mxGeometry relative="1" as="geometry" />
        </mxCell>
        <mxCell id="DKlUDa0g7rmCu-vv5rfz-56" value="" style="rounded=1;whiteSpace=wrap;strokeWidth=2;strokeColor=#667788;textShadow=1;labelBackgroundColor=none;" vertex="1" parent="DKlUDa0g7rmCu-vv5rfz-14">
          <mxGeometry x="420" y="720" width="160" height="40" as="geometry" />
        </mxCell>
        <mxCell id="DKlUDa0g7rmCu-vv5rfz-57" value="" style="rounded=1;whiteSpace=wrap;strokeWidth=2;strokeColor=#667788;textShadow=1;labelBackgroundColor=none;" vertex="1" parent="DKlUDa0g7rmCu-vv5rfz-14">
          <mxGeometry x="820" y="720" width="160" height="40" as="geometry" />
        </mxCell>
        <mxCell id="DKlUDa0g7rmCu-vv5rfz-58" value="" style="rounded=1;whiteSpace=wrap;strokeWidth=2;strokeColor=#667788;textShadow=1;labelBackgroundColor=none;" vertex="1" parent="DKlUDa0g7rmCu-vv5rfz-14">
          <mxGeometry x="620" y="780" width="160" height="40" as="geometry" />
        </mxCell>
        <mxCell id="DKlUDa0g7rmCu-vv5rfz-110" value="" style="edgeStyle=orthogonalEdgeStyle;shape=connector;curved=0;rounded=1;jumpStyle=arc;orthogonalLoop=1;jettySize=auto;exitX=1;exitY=0.5;exitDx=0;exitDy=0;entryX=0;entryY=0.5;entryDx=0;entryDy=0;strokeColor=#667788;strokeWidth=2;align=center;verticalAlign=middle;fontFamily=Helvetica;fontSize=11;fontColor=default;labelBackgroundColor=none;endArrow=none;textShadow=1;" edge="1" parent="DKlUDa0g7rmCu-vv5rfz-14" source="DKlUDa0g7rmCu-vv5rfz-59" target="DKlUDa0g7rmCu-vv5rfz-63">
          <mxGeometry relative="1" as="geometry" />
        </mxCell>
        <mxCell id="DKlUDa0g7rmCu-vv5rfz-111" value="" style="edgeStyle=orthogonalEdgeStyle;shape=connector;curved=0;rounded=1;jumpStyle=arc;orthogonalLoop=1;jettySize=auto;exitX=1;exitY=0.5;exitDx=0;exitDy=0;entryX=0;entryY=0.5;entryDx=0;entryDy=0;strokeColor=#667788;strokeWidth=2;align=center;verticalAlign=middle;fontFamily=Helvetica;fontSize=11;fontColor=default;labelBackgroundColor=none;endArrow=none;textShadow=1;" edge="1" parent="DKlUDa0g7rmCu-vv5rfz-14" source="DKlUDa0g7rmCu-vv5rfz-59" target="DKlUDa0g7rmCu-vv5rfz-62">
          <mxGeometry relative="1" as="geometry" />
        </mxCell>
        <mxCell id="DKlUDa0g7rmCu-vv5rfz-59" value="" style="rounded=1;whiteSpace=wrap;strokeWidth=2;strokeColor=#667788;textShadow=1;labelBackgroundColor=none;" vertex="1" parent="DKlUDa0g7rmCu-vv5rfz-14">
          <mxGeometry x="820" y="860" width="160" height="40" as="geometry" />
        </mxCell>
        <mxCell id="DKlUDa0g7rmCu-vv5rfz-109" value="" style="edgeStyle=orthogonalEdgeStyle;shape=connector;curved=0;rounded=1;jumpStyle=arc;orthogonalLoop=1;jettySize=auto;exitX=1;exitY=0.5;exitDx=0;exitDy=0;entryX=0;entryY=0.5;entryDx=0;entryDy=0;strokeColor=#667788;strokeWidth=2;align=center;verticalAlign=middle;fontFamily=Helvetica;fontSize=11;fontColor=default;labelBackgroundColor=none;endArrow=none;textShadow=1;" edge="1" parent="DKlUDa0g7rmCu-vv5rfz-14" source="DKlUDa0g7rmCu-vv5rfz-60" target="DKlUDa0g7rmCu-vv5rfz-59">
          <mxGeometry relative="1" as="geometry" />
        </mxCell>
        <mxCell id="DKlUDa0g7rmCu-vv5rfz-60" value="" style="rounded=1;whiteSpace=wrap;strokeWidth=2;strokeColor=#667788;textShadow=1;labelBackgroundColor=none;" vertex="1" parent="DKlUDa0g7rmCu-vv5rfz-14">
          <mxGeometry x="620" y="860" width="160" height="40" as="geometry" />
        </mxCell>
        <mxCell id="DKlUDa0g7rmCu-vv5rfz-113" value="" style="edgeStyle=orthogonalEdgeStyle;shape=connector;curved=0;rounded=1;jumpStyle=arc;orthogonalLoop=1;jettySize=auto;exitX=1;exitY=0.5;exitDx=0;exitDy=0;entryX=0.5;entryY=0;entryDx=0;entryDy=0;strokeColor=#667788;strokeWidth=2;align=center;verticalAlign=middle;fontFamily=Helvetica;fontSize=11;fontColor=default;labelBackgroundColor=none;endArrow=classic;endFill=1;textShadow=1;" edge="1" parent="DKlUDa0g7rmCu-vv5rfz-14" source="DKlUDa0g7rmCu-vv5rfz-61" target="DKlUDa0g7rmCu-vv5rfz-65">
          <mxGeometry relative="1" as="geometry" />
        </mxCell>
        <mxCell id="DKlUDa0g7rmCu-vv5rfz-61" value="" style="rounded=1;whiteSpace=wrap;strokeWidth=2;strokeColor=#667788;textShadow=1;labelBackgroundColor=none;" vertex="1" parent="DKlUDa0g7rmCu-vv5rfz-14">
          <mxGeometry x="620" y="920" width="160" height="40" as="geometry" />
        </mxCell>
        <mxCell id="DKlUDa0g7rmCu-vv5rfz-62" value="" style="rounded=1;whiteSpace=wrap;strokeWidth=2;strokeColor=#667788;textShadow=1;labelBackgroundColor=none;" vertex="1" parent="DKlUDa0g7rmCu-vv5rfz-14">
          <mxGeometry x="1020" y="920" width="160" height="40" as="geometry" />
        </mxCell>
        <mxCell id="DKlUDa0g7rmCu-vv5rfz-63" value="" style="rounded=1;whiteSpace=wrap;strokeWidth=2;strokeColor=#667788;textShadow=1;labelBackgroundColor=none;" vertex="1" parent="DKlUDa0g7rmCu-vv5rfz-14">
          <mxGeometry x="1020" y="860" width="160" height="40" as="geometry" />
        </mxCell>
        <mxCell id="DKlUDa0g7rmCu-vv5rfz-100" value="" style="edgeStyle=orthogonalEdgeStyle;shape=connector;curved=0;rounded=1;jumpStyle=arc;orthogonalLoop=1;jettySize=auto;exitX=0.5;exitY=0;exitDx=0;exitDy=0;entryX=0.5;entryY=1;entryDx=0;entryDy=0;strokeColor=#667788;strokeWidth=2;align=center;verticalAlign=middle;fontFamily=Helvetica;fontSize=11;fontColor=default;labelBackgroundColor=none;endArrow=classic;dashed=1;textShadow=1;" edge="1" parent="DKlUDa0g7rmCu-vv5rfz-14" source="DKlUDa0g7rmCu-vv5rfz-64" target="DKlUDa0g7rmCu-vv5rfz-55">
          <mxGeometry relative="1" as="geometry" />
        </mxCell>
        <mxCell id="DKlUDa0g7rmCu-vv5rfz-108" value="" style="edgeStyle=orthogonalEdgeStyle;shape=connector;curved=0;rounded=1;jumpStyle=arc;orthogonalLoop=1;jettySize=auto;exitX=1;exitY=0.5;exitDx=0;exitDy=0;entryX=0;entryY=0.5;entryDx=0;entryDy=0;strokeColor=#667788;strokeWidth=2;align=center;verticalAlign=middle;fontFamily=Helvetica;fontSize=11;fontColor=default;labelBackgroundColor=none;endArrow=none;textShadow=1;" edge="1" parent="DKlUDa0g7rmCu-vv5rfz-14" source="DKlUDa0g7rmCu-vv5rfz-64" target="DKlUDa0g7rmCu-vv5rfz-60">
          <mxGeometry relative="1" as="geometry" />
        </mxCell>
        <mxCell id="DKlUDa0g7rmCu-vv5rfz-112" value="" style="edgeStyle=orthogonalEdgeStyle;shape=connector;curved=0;rounded=1;jumpStyle=arc;orthogonalLoop=1;jettySize=auto;exitX=1;exitY=0.5;exitDx=0;exitDy=0;entryX=0;entryY=0.5;entryDx=0;entryDy=0;strokeColor=#667788;strokeWidth=2;align=center;verticalAlign=middle;fontFamily=Helvetica;fontSize=11;fontColor=default;labelBackgroundColor=none;endArrow=none;textShadow=1;" edge="1" parent="DKlUDa0g7rmCu-vv5rfz-14" source="DKlUDa0g7rmCu-vv5rfz-64" target="DKlUDa0g7rmCu-vv5rfz-61">
          <mxGeometry relative="1" as="geometry" />
        </mxCell>
        <mxCell id="DKlUDa0g7rmCu-vv5rfz-64" value="" style="rounded=1;whiteSpace=wrap;strokeWidth=2;strokeColor=#667788;textShadow=1;labelBackgroundColor=none;" vertex="1" parent="DKlUDa0g7rmCu-vv5rfz-14">
          <mxGeometry x="20" y="860" width="160" height="40" as="geometry" />
        </mxCell>
        <mxCell id="DKlUDa0g7rmCu-vv5rfz-65" value="" style="rounded=1;whiteSpace=wrap;strokeWidth=2;strokeColor=#667788;textShadow=1;labelBackgroundColor=none;" vertex="1" parent="DKlUDa0g7rmCu-vv5rfz-14">
          <mxGeometry x="820" y="1000" width="160" height="40" as="geometry" />
        </mxCell>
        <mxCell id="DKlUDa0g7rmCu-vv5rfz-115" value="" style="edgeStyle=orthogonalEdgeStyle;shape=connector;curved=0;rounded=1;jumpStyle=arc;orthogonalLoop=1;jettySize=auto;exitX=1;exitY=0.5;exitDx=0;exitDy=0;entryX=0;entryY=0.5;entryDx=0;entryDy=0;strokeColor=#667788;strokeWidth=2;align=center;verticalAlign=middle;fontFamily=Helvetica;fontSize=11;fontColor=default;labelBackgroundColor=none;endArrow=none;textShadow=1;" edge="1" parent="DKlUDa0g7rmCu-vv5rfz-14" source="DKlUDa0g7rmCu-vv5rfz-66" target="DKlUDa0g7rmCu-vv5rfz-70">
          <mxGeometry relative="1" as="geometry" />
        </mxCell>
        <mxCell id="DKlUDa0g7rmCu-vv5rfz-116" value="" style="edgeStyle=orthogonalEdgeStyle;shape=connector;curved=0;rounded=1;jumpStyle=arc;orthogonalLoop=1;jettySize=auto;exitX=1;exitY=0.5;exitDx=0;exitDy=0;entryX=0;entryY=0.5;entryDx=0;entryDy=0;strokeColor=#667788;strokeWidth=2;align=center;verticalAlign=middle;fontFamily=Helvetica;fontSize=11;fontColor=default;labelBackgroundColor=none;endArrow=none;textShadow=1;" edge="1" parent="DKlUDa0g7rmCu-vv5rfz-14" source="DKlUDa0g7rmCu-vv5rfz-66" target="DKlUDa0g7rmCu-vv5rfz-65">
          <mxGeometry relative="1" as="geometry" />
        </mxCell>
        <mxCell id="DKlUDa0g7rmCu-vv5rfz-118" value="" style="edgeStyle=orthogonalEdgeStyle;shape=connector;curved=0;rounded=1;jumpStyle=arc;orthogonalLoop=1;jettySize=auto;exitX=1;exitY=0.5;exitDx=0;exitDy=0;entryX=0;entryY=0.5;entryDx=0;entryDy=0;strokeColor=#667788;strokeWidth=2;align=center;verticalAlign=middle;fontFamily=Helvetica;fontSize=11;fontColor=default;labelBackgroundColor=none;endArrow=none;textShadow=1;" edge="1" parent="DKlUDa0g7rmCu-vv5rfz-14" source="DKlUDa0g7rmCu-vv5rfz-66" target="DKlUDa0g7rmCu-vv5rfz-68">
          <mxGeometry relative="1" as="geometry" />
        </mxCell>
        <mxCell id="DKlUDa0g7rmCu-vv5rfz-66" value="" style="rounded=1;whiteSpace=wrap;strokeWidth=2;strokeColor=#667788;textShadow=1;labelBackgroundColor=none;" vertex="1" parent="DKlUDa0g7rmCu-vv5rfz-14">
          <mxGeometry x="620" y="1060" width="160" height="40" as="geometry" />
        </mxCell>
        <mxCell id="DKlUDa0g7rmCu-vv5rfz-114" value="" style="edgeStyle=orthogonalEdgeStyle;shape=connector;curved=0;rounded=1;jumpStyle=arc;orthogonalLoop=1;jettySize=auto;exitX=1;exitY=0.5;exitDx=0;exitDy=0;entryX=0;entryY=0.5;entryDx=0;entryDy=0;strokeColor=#667788;strokeWidth=2;align=center;verticalAlign=middle;fontFamily=Helvetica;fontSize=11;fontColor=default;labelBackgroundColor=none;endArrow=none;textShadow=1;" edge="1" parent="DKlUDa0g7rmCu-vv5rfz-14" source="DKlUDa0g7rmCu-vv5rfz-67" target="DKlUDa0g7rmCu-vv5rfz-66">
          <mxGeometry relative="1" as="geometry" />
        </mxCell>
        <mxCell id="DKlUDa0g7rmCu-vv5rfz-117" value="" style="edgeStyle=orthogonalEdgeStyle;shape=connector;curved=0;rounded=1;jumpStyle=arc;orthogonalLoop=1;jettySize=auto;exitX=1;exitY=0.5;exitDx=0;exitDy=0;entryX=0;entryY=0.5;entryDx=0;entryDy=0;strokeColor=#667788;strokeWidth=2;align=center;verticalAlign=middle;fontFamily=Helvetica;fontSize=11;fontColor=default;labelBackgroundColor=none;endArrow=none;textShadow=1;" edge="1" parent="DKlUDa0g7rmCu-vv5rfz-14" source="DKlUDa0g7rmCu-vv5rfz-67" target="DKlUDa0g7rmCu-vv5rfz-69">
          <mxGeometry relative="1" as="geometry" />
        </mxCell>
        <mxCell id="DKlUDa0g7rmCu-vv5rfz-67" value="" style="rounded=1;whiteSpace=wrap;strokeWidth=2;strokeColor=#667788;textShadow=1;labelBackgroundColor=none;" vertex="1" parent="DKlUDa0g7rmCu-vv5rfz-14">
          <mxGeometry x="420" y="1060" width="160" height="40" as="geometry" />
        </mxCell>
        <mxCell id="DKlUDa0g7rmCu-vv5rfz-68" value="" style="rounded=1;whiteSpace=wrap;strokeWidth=2;strokeColor=#667788;textShadow=1;labelBackgroundColor=none;" vertex="1" parent="DKlUDa0g7rmCu-vv5rfz-14">
          <mxGeometry x="820" y="1120" width="160" height="40" as="geometry" />
        </mxCell>
        <mxCell id="DKlUDa0g7rmCu-vv5rfz-69" value="" style="rounded=1;whiteSpace=wrap;strokeWidth=2;strokeColor=#667788;textShadow=1;labelBackgroundColor=none;" vertex="1" parent="DKlUDa0g7rmCu-vv5rfz-14">
          <mxGeometry x="620" y="1120" width="160" height="40" as="geometry" />
        </mxCell>
        <mxCell id="DKlUDa0g7rmCu-vv5rfz-70" value="" style="rounded=1;whiteSpace=wrap;strokeWidth=2;strokeColor=#667788;textShadow=1;labelBackgroundColor=none;" vertex="1" parent="DKlUDa0g7rmCu-vv5rfz-14">
          <mxGeometry x="1020" y="1060" width="160" height="40" as="geometry" />
        </mxCell>
        <mxCell id="DKlUDa0g7rmCu-vv5rfz-71" value="" style="endArrow=none;rounded=1;entryX=0;entryY=0.5;entryDx=0;entryDy=0;strokeWidth=2;strokeColor=#667788;exitX=1;exitY=0.5;exitDx=0;exitDy=0;align=center;verticalAlign=middle;fontFamily=Helvetica;fontSize=11;fontColor=default;labelBackgroundColor=none;edgeStyle=orthogonalEdgeStyle;jumpStyle=arc;curved=0;endFill=0;textShadow=1;" edge="1" parent="DKlUDa0g7rmCu-vv5rfz-14" source="DKlUDa0g7rmCu-vv5rfz-31" target="DKlUDa0g7rmCu-vv5rfz-32">
          <mxGeometry width="50" height="50" relative="1" as="geometry">
            <mxPoint x="230" y="80" as="sourcePoint" />
            <mxPoint x="670" y="70" as="targetPoint" />
          </mxGeometry>
        </mxCell>
        <mxCell id="DKlUDa0g7rmCu-vv5rfz-72" value="" style="endArrow=classic;rounded=1;exitX=1;exitY=0.5;exitDx=0;exitDy=0;entryX=0.5;entryY=0;entryDx=0;entryDy=0;curved=0;edgeStyle=orthogonalEdgeStyle;endFill=1;strokeWidth=2;strokeColor=#667788;textShadow=1;labelBackgroundColor=none;" edge="1" parent="DKlUDa0g7rmCu-vv5rfz-14" source="DKlUDa0g7rmCu-vv5rfz-32" target="DKlUDa0g7rmCu-vv5rfz-42">
          <mxGeometry width="50" height="50" relative="1" as="geometry">
            <mxPoint x="830" y="260" as="sourcePoint" />
            <mxPoint x="880" y="210" as="targetPoint" />
          </mxGeometry>
        </mxCell>
        <mxCell id="DKlUDa0g7rmCu-vv5rfz-74" value="" style="endArrow=classic;rounded=1;strokeColor=#667788;strokeWidth=2;align=center;verticalAlign=middle;fontFamily=Helvetica;fontSize=11;fontColor=default;labelBackgroundColor=none;edgeStyle=orthogonalEdgeStyle;jumpStyle=arc;curved=0;exitX=1;exitY=0.5;exitDx=0;exitDy=0;entryX=0;entryY=0.5;entryDx=0;entryDy=0;textShadow=1;" edge="1" parent="DKlUDa0g7rmCu-vv5rfz-14" source="DKlUDa0g7rmCu-vv5rfz-36" target="DKlUDa0g7rmCu-vv5rfz-35">
          <mxGeometry width="50" height="50" relative="1" as="geometry">
            <mxPoint x="680" y="300" as="sourcePoint" />
            <mxPoint x="730" y="250" as="targetPoint" />
          </mxGeometry>
        </mxCell>
        <mxCell id="DKlUDa0g7rmCu-vv5rfz-75" value="" style="endArrow=none;rounded=1;strokeColor=#667788;strokeWidth=2;align=center;verticalAlign=middle;fontFamily=Helvetica;fontSize=11;fontColor=default;labelBackgroundColor=none;edgeStyle=orthogonalEdgeStyle;jumpStyle=arc;curved=0;entryX=0;entryY=0.5;entryDx=0;entryDy=0;exitX=1;exitY=0.5;exitDx=0;exitDy=0;textShadow=1;" edge="1" parent="DKlUDa0g7rmCu-vv5rfz-14" source="DKlUDa0g7rmCu-vv5rfz-35" target="DKlUDa0g7rmCu-vv5rfz-33">
          <mxGeometry width="50" height="50" relative="1" as="geometry">
            <mxPoint x="680" y="300" as="sourcePoint" />
            <mxPoint x="730" y="250" as="targetPoint" />
          </mxGeometry>
        </mxCell>
        <mxCell id="DKlUDa0g7rmCu-vv5rfz-76" value="" style="endArrow=none;rounded=1;strokeColor=#667788;strokeWidth=2;align=center;verticalAlign=middle;fontFamily=Helvetica;fontSize=11;fontColor=default;labelBackgroundColor=none;edgeStyle=orthogonalEdgeStyle;jumpStyle=arc;curved=0;entryX=0;entryY=0.5;entryDx=0;entryDy=0;exitX=1;exitY=0.5;exitDx=0;exitDy=0;textShadow=1;" edge="1" parent="DKlUDa0g7rmCu-vv5rfz-14" source="DKlUDa0g7rmCu-vv5rfz-33" target="DKlUDa0g7rmCu-vv5rfz-37">
          <mxGeometry width="50" height="50" relative="1" as="geometry">
            <mxPoint x="680" y="300" as="sourcePoint" />
            <mxPoint x="730" y="250" as="targetPoint" />
          </mxGeometry>
        </mxCell>
        <mxCell id="DKlUDa0g7rmCu-vv5rfz-77" value="" style="endArrow=none;rounded=1;strokeColor=#667788;strokeWidth=2;align=center;verticalAlign=middle;fontFamily=Helvetica;fontSize=11;fontColor=default;labelBackgroundColor=none;edgeStyle=orthogonalEdgeStyle;jumpStyle=arc;curved=0;entryX=0;entryY=0.5;entryDx=0;entryDy=0;exitX=1;exitY=0.5;exitDx=0;exitDy=0;textShadow=1;" edge="1" parent="DKlUDa0g7rmCu-vv5rfz-14" source="DKlUDa0g7rmCu-vv5rfz-34" target="DKlUDa0g7rmCu-vv5rfz-37">
          <mxGeometry width="50" height="50" relative="1" as="geometry">
            <mxPoint x="680" y="300" as="sourcePoint" />
            <mxPoint x="730" y="250" as="targetPoint" />
          </mxGeometry>
        </mxCell>
        <mxCell id="DKlUDa0g7rmCu-vv5rfz-78" value="" style="endArrow=none;rounded=1;strokeColor=#667788;strokeWidth=2;align=center;verticalAlign=middle;fontFamily=Helvetica;fontSize=11;fontColor=default;labelBackgroundColor=none;edgeStyle=orthogonalEdgeStyle;jumpStyle=arc;curved=0;exitX=1;exitY=0.5;exitDx=0;exitDy=0;entryX=0;entryY=0.5;entryDx=0;entryDy=0;endFill=0;textShadow=1;" edge="1" parent="DKlUDa0g7rmCu-vv5rfz-14" source="DKlUDa0g7rmCu-vv5rfz-31" target="DKlUDa0g7rmCu-vv5rfz-36">
          <mxGeometry width="50" height="50" relative="1" as="geometry">
            <mxPoint x="680" y="300" as="sourcePoint" />
            <mxPoint x="730" y="250" as="targetPoint" />
          </mxGeometry>
        </mxCell>
        <mxCell id="DKlUDa0g7rmCu-vv5rfz-79" value="" style="endArrow=classic;rounded=1;strokeColor=#667788;strokeWidth=2;align=center;verticalAlign=middle;fontFamily=Helvetica;fontSize=11;fontColor=default;labelBackgroundColor=none;edgeStyle=orthogonalEdgeStyle;jumpStyle=arc;curved=0;exitX=0.5;exitY=1;exitDx=0;exitDy=0;entryX=0.5;entryY=0;entryDx=0;entryDy=0;dashed=1;textShadow=1;" edge="1" parent="DKlUDa0g7rmCu-vv5rfz-14" source="DKlUDa0g7rmCu-vv5rfz-32" target="DKlUDa0g7rmCu-vv5rfz-35">
          <mxGeometry width="50" height="50" relative="1" as="geometry">
            <mxPoint x="680" y="300" as="sourcePoint" />
            <mxPoint x="730" y="250" as="targetPoint" />
            <Array as="points">
              <mxPoint x="700" y="110" />
              <mxPoint x="500" y="110" />
            </Array>
          </mxGeometry>
        </mxCell>
        <mxCell id="DKlUDa0g7rmCu-vv5rfz-80" value="" style="endArrow=none;rounded=1;strokeColor=#667788;strokeWidth=2;align=center;verticalAlign=middle;fontFamily=Helvetica;fontSize=11;fontColor=default;labelBackgroundColor=none;edgeStyle=orthogonalEdgeStyle;jumpStyle=arc;curved=0;exitX=1;exitY=0.5;exitDx=0;exitDy=0;entryX=0;entryY=0.5;entryDx=0;entryDy=0;textShadow=1;" edge="1" parent="DKlUDa0g7rmCu-vv5rfz-14" source="DKlUDa0g7rmCu-vv5rfz-35" target="DKlUDa0g7rmCu-vv5rfz-34">
          <mxGeometry width="50" height="50" relative="1" as="geometry">
            <mxPoint x="680" y="300" as="sourcePoint" />
            <mxPoint x="730" y="250" as="targetPoint" />
          </mxGeometry>
        </mxCell>
        <mxCell id="DKlUDa0g7rmCu-vv5rfz-119" value="Spell names and Legend" style="locked=1;" parent="0" />
        <mxCell id="DKlUDa0g7rmCu-vv5rfz-120" value="Obfuscation" style="text;align=center;verticalAlign=middle;whiteSpace=wrap;rounded=0;fontFamily=Georgia;fontSize=15;fontColor=default;labelBackgroundColor=none;" vertex="1" parent="DKlUDa0g7rmCu-vv5rfz-119">
          <mxGeometry x="20" y="60" width="160" height="40" as="geometry" />
        </mxCell>
        <mxCell id="DKlUDa0g7rmCu-vv5rfz-121" value="Petrifying Visions" style="text;align=center;verticalAlign=middle;whiteSpace=wrap;rounded=0;fontFamily=Georgia;fontSize=15;fontColor=default;labelBackgroundColor=none;" vertex="1" parent="DKlUDa0g7rmCu-vv5rfz-119">
          <mxGeometry x="220" y="150" width="160" height="40" as="geometry" />
        </mxCell>
        <mxCell id="DKlUDa0g7rmCu-vv5rfz-122" value="Eyes of the Blind" style="text;align=center;verticalAlign=middle;whiteSpace=wrap;rounded=0;fontFamily=Georgia;fontSize=15;fontColor=default;labelBackgroundColor=none;fontStyle=1" vertex="1" parent="DKlUDa0g7rmCu-vv5rfz-119">
          <mxGeometry x="420" y="150" width="160" height="40" as="geometry" />
        </mxCell>
        <mxCell id="DKlUDa0g7rmCu-vv5rfz-123" value="Visions of Darkness" style="text;align=center;verticalAlign=middle;whiteSpace=wrap;rounded=0;fontFamily=Georgia;fontSize=15;fontColor=default;labelBackgroundColor=none;fontStyle=1" vertex="1" parent="DKlUDa0g7rmCu-vv5rfz-119">
          <mxGeometry x="620" y="60" width="160" height="40" as="geometry" />
        </mxCell>
        <mxCell id="DKlUDa0g7rmCu-vv5rfz-124" value="Rite of Contrition" style="text;align=center;verticalAlign=middle;whiteSpace=wrap;rounded=0;fontFamily=Georgia;fontSize=15;fontColor=default;labelBackgroundColor=none;fontStyle=1" vertex="1" parent="DKlUDa0g7rmCu-vv5rfz-119">
          <mxGeometry x="620" y="120" width="160" height="40" as="geometry" />
        </mxCell>
        <mxCell id="DKlUDa0g7rmCu-vv5rfz-125" value="Rite of Grace" style="text;align=center;verticalAlign=middle;whiteSpace=wrap;rounded=0;fontFamily=Georgia;fontSize=15;fontColor=default;labelBackgroundColor=none;fontStyle=1" vertex="1" parent="DKlUDa0g7rmCu-vv5rfz-119">
          <mxGeometry x="620" y="180" width="160" height="40" as="geometry" />
        </mxCell>
        <mxCell id="DKlUDa0g7rmCu-vv5rfz-126" value="Liturgy" style="text;align=center;verticalAlign=middle;whiteSpace=wrap;rounded=0;fontFamily=Georgia;fontSize=15;fontColor=default;labelBackgroundColor=none;" vertex="1" parent="DKlUDa0g7rmCu-vv5rfz-119">
          <mxGeometry x="820" y="150" width="160" height="40" as="geometry" />
        </mxCell>
        <mxCell id="DKlUDa0g7rmCu-vv5rfz-127" value="Quicken the Earth" style="text;align=center;verticalAlign=middle;whiteSpace=wrap;rounded=0;fontFamily=Georgia;fontSize=15;fontColor=default;labelBackgroundColor=none;fontStyle=1" vertex="1" parent="DKlUDa0g7rmCu-vv5rfz-119">
          <mxGeometry x="420" y="290" width="160" height="40" as="geometry" />
        </mxCell>
        <mxCell id="DKlUDa0g7rmCu-vv5rfz-128" value="Call from Beyond" style="text;align=center;verticalAlign=middle;whiteSpace=wrap;rounded=0;fontFamily=Georgia;fontSize=15;fontColor=default;labelBackgroundColor=none;fontStyle=1" vertex="1" parent="DKlUDa0g7rmCu-vv5rfz-119">
          <mxGeometry x="620" y="290" width="160" height="40" as="geometry" />
        </mxCell>
        <mxCell id="DKlUDa0g7rmCu-vv5rfz-129" value="Ghoulflesh" style="text;align=center;verticalAlign=middle;whiteSpace=wrap;rounded=0;fontFamily=Georgia;fontSize=15;fontColor=default;labelBackgroundColor=none;fontStyle=1" vertex="1" parent="DKlUDa0g7rmCu-vv5rfz-119">
          <mxGeometry x="820" y="260" width="160" height="40" as="geometry" />
        </mxCell>
        <mxCell id="DKlUDa0g7rmCu-vv5rfz-130" value="Necrotic Reconstruction" style="text;align=center;verticalAlign=middle;whiteSpace=wrap;rounded=0;fontFamily=Georgia;fontSize=15;fontColor=default;labelBackgroundColor=none;fontStyle=1" vertex="1" parent="DKlUDa0g7rmCu-vv5rfz-119">
          <mxGeometry x="620" y="380" width="160" height="40" as="geometry" />
        </mxCell>
        <mxCell id="DKlUDa0g7rmCu-vv5rfz-131" value="Reverse Putrefaction" style="text;align=center;verticalAlign=middle;whiteSpace=wrap;rounded=0;fontFamily=Georgia;fontSize=15;fontColor=default;labelBackgroundColor=none;fontStyle=1" vertex="1" parent="DKlUDa0g7rmCu-vv5rfz-119">
          <mxGeometry x="820" y="320" width="160" height="40" as="geometry" />
        </mxCell>
        <mxCell id="DKlUDa0g7rmCu-vv5rfz-132" value="Spiteful Rebirth" style="text;align=center;verticalAlign=middle;whiteSpace=wrap;rounded=0;fontFamily=Georgia;fontSize=15;fontColor=default;labelBackgroundColor=none;fontStyle=1" vertex="1" parent="DKlUDa0g7rmCu-vv5rfz-119">
          <mxGeometry x="820" y="380" width="160" height="40" as="geometry" />
        </mxCell>
        <mxCell id="DKlUDa0g7rmCu-vv5rfz-133" value="Covetous Rebirth" style="text;align=center;verticalAlign=middle;whiteSpace=wrap;rounded=0;fontFamily=Georgia;fontSize=15;fontColor=default;labelBackgroundColor=none;fontStyle=1" vertex="1" parent="DKlUDa0g7rmCu-vv5rfz-119">
          <mxGeometry x="1020" y="380" width="160" height="40" as="geometry" />
        </mxCell>
        <mxCell id="DKlUDa0g7rmCu-vv5rfz-134" value="Call from Within" style="text;align=center;verticalAlign=middle;whiteSpace=wrap;rounded=0;fontFamily=Georgia;fontSize=15;fontColor=default;labelBackgroundColor=none;fontStyle=1" vertex="1" parent="DKlUDa0g7rmCu-vv5rfz-119">
          <mxGeometry x="1220" y="290" width="160" height="40" as="geometry" />
        </mxCell>
        <mxCell id="DKlUDa0g7rmCu-vv5rfz-137" value="Alkahest Edge" style="text;align=center;verticalAlign=middle;whiteSpace=wrap;rounded=0;fontFamily=Georgia;fontSize=15;fontColor=default;labelBackgroundColor=none;fontStyle=1" vertex="1" parent="DKlUDa0g7rmCu-vv5rfz-119">
          <mxGeometry x="1220" y="460" width="160" height="40" as="geometry" />
        </mxCell>
        <mxCell id="DKlUDa0g7rmCu-vv5rfz-138" value="Vivisection" style="text;align=center;verticalAlign=middle;whiteSpace=wrap;rounded=0;fontFamily=Georgia;fontSize=15;fontColor=default;labelBackgroundColor=none;fontStyle=1" vertex="1" parent="DKlUDa0g7rmCu-vv5rfz-119">
          <mxGeometry x="1020" y="460" width="160" height="40" as="geometry" />
        </mxCell>
        <mxCell id="DKlUDa0g7rmCu-vv5rfz-139" value="Universal Solvent" style="text;align=center;verticalAlign=middle;whiteSpace=wrap;rounded=0;fontFamily=Georgia;fontSize=15;fontColor=default;labelBackgroundColor=none;fontStyle=1" vertex="1" parent="DKlUDa0g7rmCu-vv5rfz-119">
          <mxGeometry x="1020" y="520" width="160" height="40" as="geometry" />
        </mxCell>
        <mxCell id="DKlUDa0g7rmCu-vv5rfz-140" value="Philospher&#39;s Preservation" style="text;align=center;verticalAlign=middle;whiteSpace=wrap;rounded=0;fontFamily=Georgia;fontSize=15;fontColor=default;labelBackgroundColor=none;fontStyle=1" vertex="1" parent="DKlUDa0g7rmCu-vv5rfz-119">
          <mxGeometry x="820" y="580" width="160" height="40" as="geometry" />
        </mxCell>
        <mxCell id="DKlUDa0g7rmCu-vv5rfz-141" value="Viscous Solution" style="text;align=center;verticalAlign=middle;whiteSpace=wrap;rounded=0;fontFamily=Georgia;fontSize=15;fontColor=default;labelBackgroundColor=none;" vertex="1" parent="DKlUDa0g7rmCu-vv5rfz-119">
          <mxGeometry x="620" y="520" width="160" height="40" as="geometry" />
        </mxCell>
        <mxCell id="DKlUDa0g7rmCu-vv5rfz-142" value="Researcher&#39;s Insight" style="text;align=center;verticalAlign=middle;whiteSpace=wrap;rounded=0;fontFamily=Georgia;fontSize=15;fontColor=default;labelBackgroundColor=none;" vertex="1" parent="DKlUDa0g7rmCu-vv5rfz-119">
          <mxGeometry x="620" y="580" width="160" height="40" as="geometry" />
        </mxCell>
        <mxCell id="DKlUDa0g7rmCu-vv5rfz-143" value="Acid Splash" style="text;align=center;verticalAlign=middle;whiteSpace=wrap;rounded=0;fontFamily=Georgia;fontSize=15;fontColor=default;labelBackgroundColor=none;" vertex="1" parent="DKlUDa0g7rmCu-vv5rfz-119">
          <mxGeometry x="20" y="520" width="160" height="40" as="geometry" />
        </mxCell>
        <mxCell id="DKlUDa0g7rmCu-vv5rfz-144" value="Ivory mask" style="text;align=center;verticalAlign=middle;whiteSpace=wrap;rounded=0;fontFamily=Georgia;fontSize=15;fontColor=default;labelBackgroundColor=none;fontStyle=1" vertex="1" parent="DKlUDa0g7rmCu-vv5rfz-119">
          <mxGeometry x="220" y="660" width="160" height="40" as="geometry" />
        </mxCell>
        <mxCell id="DKlUDa0g7rmCu-vv5rfz-145" value="Kura-Silma" style="text;align=center;verticalAlign=middle;whiteSpace=wrap;rounded=0;fontFamily=Georgia;fontSize=15;fontColor=default;labelBackgroundColor=none;fontStyle=1" vertex="1" parent="DKlUDa0g7rmCu-vv5rfz-119">
          <mxGeometry x="420" y="660" width="160" height="40" as="geometry" />
        </mxCell>
        <mxCell id="DKlUDa0g7rmCu-vv5rfz-146" value="Worm&#39;s Mist" style="text;align=center;verticalAlign=middle;whiteSpace=wrap;rounded=0;fontFamily=Georgia;fontSize=15;fontColor=default;labelBackgroundColor=none;fontStyle=1" vertex="1" parent="DKlUDa0g7rmCu-vv5rfz-119">
          <mxGeometry x="1020" y="660" width="160" height="40" as="geometry" />
        </mxCell>
        <mxCell id="DKlUDa0g7rmCu-vv5rfz-147" value="Butcher&#39;s Eye" style="text;align=center;verticalAlign=middle;whiteSpace=wrap;rounded=0;fontFamily=Georgia;fontSize=15;fontColor=default;labelBackgroundColor=none;fontStyle=1" vertex="1" parent="DKlUDa0g7rmCu-vv5rfz-119">
          <mxGeometry x="420" y="720" width="160" height="40" as="geometry" />
        </mxCell>
        <mxCell id="DKlUDa0g7rmCu-vv5rfz-148" value="Siphon Vitality" style="text;align=center;verticalAlign=middle;whiteSpace=wrap;rounded=0;fontFamily=Georgia;fontSize=15;fontColor=default;labelBackgroundColor=none;" vertex="1" parent="DKlUDa0g7rmCu-vv5rfz-119">
          <mxGeometry x="620" y="860" width="160" height="40" as="geometry" />
        </mxCell>
        <mxCell id="DKlUDa0g7rmCu-vv5rfz-149" value="Chirurgia" style="text;align=center;verticalAlign=middle;whiteSpace=wrap;rounded=0;fontFamily=Georgia;fontSize=15;fontColor=default;labelBackgroundColor=none;fontStyle=1" vertex="1" parent="DKlUDa0g7rmCu-vv5rfz-119">
          <mxGeometry x="620" y="780" width="160" height="40" as="geometry" />
        </mxCell>
        <mxCell id="DKlUDa0g7rmCu-vv5rfz-150" value="Calcified Hide" style="text;align=center;verticalAlign=middle;whiteSpace=wrap;rounded=0;fontFamily=Georgia;fontSize=15;fontColor=default;labelBackgroundColor=none;fontStyle=1" vertex="1" parent="DKlUDa0g7rmCu-vv5rfz-119">
          <mxGeometry x="820" y="720" width="160" height="40" as="geometry" />
        </mxCell>
        <mxCell id="DKlUDa0g7rmCu-vv5rfz-151" value="Consume Flesh" style="text;align=center;verticalAlign=middle;whiteSpace=wrap;rounded=0;fontFamily=Georgia;fontSize=15;fontColor=default;labelBackgroundColor=none;fontStyle=1" vertex="1" parent="DKlUDa0g7rmCu-vv5rfz-119">
          <mxGeometry x="820" y="860" width="160" height="40" as="geometry" />
        </mxCell>
        <mxCell id="DKlUDa0g7rmCu-vv5rfz-152" value="Devour" style="text;align=center;verticalAlign=middle;whiteSpace=wrap;rounded=0;fontFamily=Georgia;fontSize=15;fontColor=default;labelBackgroundColor=none;fontStyle=1" vertex="1" parent="DKlUDa0g7rmCu-vv5rfz-119">
          <mxGeometry x="1020" y="860" width="160" height="40" as="geometry" />
        </mxCell>
        <mxCell id="DKlUDa0g7rmCu-vv5rfz-153" value="Heighten Pain" style="text;align=center;verticalAlign=middle;whiteSpace=wrap;rounded=0;fontFamily=Georgia;fontSize=15;fontColor=default;labelBackgroundColor=none;" vertex="1" parent="DKlUDa0g7rmCu-vv5rfz-119">
          <mxGeometry x="20" y="860" width="160" height="40" as="geometry" />
        </mxCell>
        <mxCell id="DKlUDa0g7rmCu-vv5rfz-154" value="Solace" style="text;align=center;verticalAlign=middle;whiteSpace=wrap;rounded=0;fontFamily=Georgia;fontSize=15;fontColor=default;labelBackgroundColor=none;fontStyle=1" vertex="1" parent="DKlUDa0g7rmCu-vv5rfz-119">
          <mxGeometry x="420" y="1060" width="160" height="40" as="geometry" />
        </mxCell>
        <mxCell id="DKlUDa0g7rmCu-vv5rfz-155" value="Emuin&#39;s Candlelight" style="text;align=center;verticalAlign=middle;whiteSpace=wrap;rounded=0;fontFamily=Georgia;fontSize=15;fontColor=default;labelBackgroundColor=none;fontStyle=1" vertex="1" parent="DKlUDa0g7rmCu-vv5rfz-119">
          <mxGeometry x="620" y="1060" width="160" height="40" as="geometry" />
        </mxCell>
        <mxCell id="DKlUDa0g7rmCu-vv5rfz-156" value="Relight" style="text;align=center;verticalAlign=middle;whiteSpace=wrap;rounded=0;fontFamily=Georgia;fontSize=15;fontColor=default;labelBackgroundColor=none;fontStyle=1" vertex="1" parent="DKlUDa0g7rmCu-vv5rfz-119">
          <mxGeometry x="820" y="1120" width="160" height="40" as="geometry" />
        </mxCell>
        <mxCell id="DKlUDa0g7rmCu-vv5rfz-157" value="Book Burning" style="text;align=center;verticalAlign=middle;whiteSpace=wrap;rounded=0;fontFamily=Georgia;fontSize=15;fontColor=default;labelBackgroundColor=none;fontStyle=1" vertex="1" parent="DKlUDa0g7rmCu-vv5rfz-119">
          <mxGeometry x="1020" y="1060" width="160" height="40" as="geometry" />
        </mxCell>
        <mxCell id="DKlUDa0g7rmCu-vv5rfz-162" value="Resection" style="text;align=center;verticalAlign=middle;whiteSpace=wrap;rounded=0;fontFamily=Georgia;fontSize=15;fontColor=default;labelBackgroundColor=none;fontStyle=1" vertex="1" parent="DKlUDa0g7rmCu-vv5rfz-119">
          <mxGeometry x="1020" y="920" width="160" height="40" as="geometry" />
        </mxCell>
        <mxCell id="DKlUDa0g7rmCu-vv5rfz-163" value="Ebon Blood of the Scorpion" style="text;align=center;verticalAlign=middle;whiteSpace=wrap;rounded=0;fontFamily=Georgia;fontSize=15;fontColor=default;labelBackgroundColor=none;fontStyle=1" vertex="1" parent="DKlUDa0g7rmCu-vv5rfz-119">
          <mxGeometry x="820" y="1000" width="160" height="40" as="geometry" />
        </mxCell>
        <mxCell id="DKlUDa0g7rmCu-vv5rfz-164" value="Rite of Forebearance" style="text;align=center;verticalAlign=middle;whiteSpace=wrap;rounded=0;fontFamily=Georgia;fontSize=15;fontColor=default;labelBackgroundColor=none;fontStyle=1" vertex="1" parent="DKlUDa0g7rmCu-vv5rfz-119">
          <mxGeometry x="620" y="1120" width="160" height="40" as="geometry" />
        </mxCell>
        <mxCell id="DKlUDa0g7rmCu-vv5rfz-166" value="Blood Burst" style="text;align=center;verticalAlign=middle;whiteSpace=wrap;rounded=0;fontFamily=Georgia;fontSize=15;fontColor=default;labelBackgroundColor=none;" vertex="1" parent="DKlUDa0g7rmCu-vv5rfz-119">
          <mxGeometry x="620" y="920" width="160" height="40" as="geometry" />
        </mxCell>
        <mxCell id="DKlUDa0g7rmCu-vv5rfz-178" value="Special requirements in italics" style="text;align=center;verticalAlign=middle;whiteSpace=wrap;rounded=0;fontFamily=Georgia;fontSize=15;fontColor=default;labelBackgroundColor=none;fontStyle=2" vertex="1" parent="DKlUDa0g7rmCu-vv5rfz-119">
          <mxGeometry x="1280" y="720" width="160" height="40" as="geometry" />
        </mxCell>
        <mxCell id="DKlUDa0g7rmCu-vv5rfz-180" value="Corruption" style="text;align=center;verticalAlign=middle;whiteSpace=wrap;rounded=0;fontFamily=Georgia;fontSize=15;fontColor=default;labelBackgroundColor=none;" vertex="1" parent="DKlUDa0g7rmCu-vv5rfz-119">
          <mxGeometry x="1280" y="760" width="160" height="40" as="geometry" />
        </mxCell>
        <mxCell id="DKlUDa0g7rmCu-vv5rfz-181" value="Animation" style="text;align=center;verticalAlign=middle;whiteSpace=wrap;rounded=0;fontFamily=Georgia;fontSize=15;fontColor=default;labelBackgroundColor=none;" vertex="1" parent="DKlUDa0g7rmCu-vv5rfz-119">
          <mxGeometry x="1280" y="810" width="160" height="40" as="geometry" />
        </mxCell>
        <mxCell id="DKlUDa0g7rmCu-vv5rfz-182" value="Synthetic Creation" style="text;align=center;verticalAlign=middle;whiteSpace=wrap;rounded=0;fontFamily=Georgia;fontSize=15;fontColor=default;labelBackgroundColor=none;" vertex="1" parent="DKlUDa0g7rmCu-vv5rfz-119">
          <mxGeometry x="1280" y="860" width="160" height="40" as="geometry" />
        </mxCell>
        <mxCell id="DKlUDa0g7rmCu-vv5rfz-183" value="Transcendental Necromancy" style="text;align=center;verticalAlign=middle;whiteSpace=wrap;rounded=0;fontFamily=Georgia;fontSize=15;fontColor=default;labelBackgroundColor=none;" vertex="1" parent="DKlUDa0g7rmCu-vv5rfz-119">
          <mxGeometry x="1280" y="910" width="160" height="40" as="geometry" />
        </mxCell>
        <mxCell id="DKlUDa0g7rmCu-vv5rfz-184" value="Blood Magic" style="text;align=center;verticalAlign=middle;whiteSpace=wrap;rounded=0;fontFamily=Georgia;fontSize=15;fontColor=default;labelBackgroundColor=none;" vertex="1" parent="DKlUDa0g7rmCu-vv5rfz-119">
          <mxGeometry x="1280" y="960" width="160" height="40" as="geometry" />
        </mxCell>
        <mxCell id="DKlUDa0g7rmCu-vv5rfz-185" value="Anabasis" style="text;align=center;verticalAlign=middle;whiteSpace=wrap;rounded=0;fontFamily=Georgia;fontSize=15;fontColor=default;labelBackgroundColor=none;" vertex="1" parent="DKlUDa0g7rmCu-vv5rfz-119">
          <mxGeometry x="1280" y="1010" width="160" height="40" as="geometry" />
        </mxCell>
        <mxCell id="DKlUDa0g7rmCu-vv5rfz-186" value="Signature spells in bold" style="text;align=center;verticalAlign=middle;whiteSpace=wrap;rounded=0;fontFamily=Georgia;fontSize=15;fontColor=default;labelBackgroundColor=none;fontStyle=1" vertex="1" parent="DKlUDa0g7rmCu-vv5rfz-119">
          <mxGeometry x="1280" y="1060" width="160" height="40" as="geometry" />
        </mxCell>
        <mxCell id="DKlUDa0g7rmCu-vv5rfz-187" value="T ●○○○&#xa;Magic skill &amp; Spell slot cost" style="text;align=center;verticalAlign=middle;whiteSpace=wrap;rounded=0;fontFamily=Georgia;fontSize=15;fontColor=default;labelBackgroundColor=none;" vertex="1" parent="DKlUDa0g7rmCu-vv5rfz-119">
          <mxGeometry x="1280" y="1100" width="160" height="40" as="geometry" />
        </mxCell>
        <mxCell id="-dR2T00Uhgw3VuPTZwKf-566" value="Transparency" style="locked=1;" parent="0" />
      </root>
    </mxGraphModel>
  </diagram>
</mxfile>
